<?xml version="1.0" standalone="no"?>
<!DOCTYPE svg PUBLIC "-//W3C//DTD SVG 20010904//EN"
 "http://www.w3.org/TR/2001/REC-SVG-20010904/DTD/svg10.dtd">
<svg version="1.0" xmlns="http://www.w3.org/2000/svg"
 width="500.000000pt" height="500.000000pt" viewBox="0 0 500.000000 500.000000"
 preserveAspectRatio="xMidYMid meet">

<g transform="translate(0.000000,500.000000) scale(0.100000,-0.100000)"
fill="#000000" stroke="none">
<path d="M1292 2940 c-42 -9 -87 -35 -111 -64 -10 -12 -17 -12 -52 2 -34 13
-51 14 -106 5 -136 -24 -243 -103 -312 -232 -24 -44 -48 -78 -52 -75 -5 3 -9
-6 -9 -20 0 -16 69 -129 185 -305 l184 -281 48 52 c90 96 228 168 364 189 79
12 119 3 119 -27 0 -40 112 -138 134 -117 12 13 5 22 -39 47 -40 24 -75 68
-75 95 0 13 88 58 149 77 61 18 202 18 246 0 43 -18 53 -6 28 34 -10 17 -108
154 -218 305 l-200 275 -62 19 c-76 24 -164 33 -221 21z m215 -48 c45 -16 57
-30 219 -252 95 -129 171 -236 170 -237 -1 -1 -26 10 -56 25 -90 45 -195 31
-263 -34 -24 -22 -31 -24 -42 -13 -8 8 -88 115 -179 239 -157 214 -164 225
-148 243 38 42 93 58 184 52 37 -3 89 -13 115 -23z m-371 -48 c24 -11 68 -63
155 -182 68 -92 148 -201 178 -242 47 -63 50 -71 24 -52 -65 46 -168 45 -264
-4 -56 -28 -164 -125 -185 -166 -8 -15 -18 -28 -23 -28 -10 0 -281 413 -288
439 -10 40 70 144 145 188 102 60 195 77 258 47z"/>
<path d="M3670 2670 l0 -230 35 0 35 0 0 230 0 230 -35 0 -35 0 0 -230z"/>
<path d="M2170 2655 l0 -215 40 0 40 0 0 65 0 65 58 0 57 0 44 -65 c42 -61 47
-65 83 -65 21 0 38 3 38 6 0 4 -21 35 -46 71 -25 35 -44 66 -42 67 1 2 13 9
26 15 57 30 79 123 44 191 -30 61 -84 80 -224 80 l-118 0 0 -215z m250 127
c26 -20 36 -57 25 -99 -8 -33 -59 -53 -135 -53 l-60 0 0 83 c0 46 3 87 8 91
13 14 135 -3 162 -22z"/>
<path d="M2610 2660 c0 -164 26 -210 125 -218 43 -3 62 0 90 16 34 21 35 21
35 2 0 -16 7 -20 35 -20 l35 0 0 165 0 165 -35 0 -35 0 0 -82 c0 -109 -13
-154 -50 -173 -39 -20 -62 -19 -94 6 -25 20 -26 23 -26 135 l0 114 -40 0 -40
0 0 -110z"/>
<path d="M3030 2605 l0 -165 40 0 40 0 0 96 c0 122 20 163 83 164 24 0 27 3
27 36 0 36 0 37 -36 31 -20 -3 -45 -14 -55 -23 -18 -16 -19 -16 -19 4 0 19 -6
22 -40 22 l-40 0 0 -165z"/>
<path d="M3327 2755 c-50 -17 -51 -19 -32 -48 16 -24 18 -25 50 -11 72 30 145
7 145 -46 0 -18 -7 -20 -64 -20 -81 0 -123 -15 -141 -51 -39 -75 12 -139 113
-139 27 0 57 6 68 15 25 19 34 19 34 0 0 -10 11 -15 35 -15 l35 0 0 110 c0
128 -13 170 -62 200 -39 24 -123 26 -181 5z m163 -199 c0 -31 -43 -66 -81 -66
-33 0 -73 34 -63 53 19 32 29 37 85 37 56 0 59 -1 59 -24z"/>
<path d="M2310 2340 c0 -5 7 -10 15 -10 8 0 15 5 15 10 0 6 -7 10 -15 10 -8 0
-15 -4 -15 -10z"/>
<path d="M2390 2272 l0 -78 45 -2 c36 -1 47 3 60 20 20 30 19 51 -5 73 -13 11
-30 16 -50 13 -27 -4 -30 -2 -30 24 0 15 -4 28 -10 28 -6 0 -10 -33 -10 -78z
m85 5 c26 -20 13 -67 -18 -67 -43 0 -60 35 -31 64 19 19 25 20 49 3z"/>
<path d="M3540 2272 l0 -79 39 -1 c47 -2 71 17 71 57 0 37 -22 54 -60 49 -27
-4 -30 -2 -30 24 0 15 -4 28 -10 28 -6 0 -10 -33 -10 -78z m80 4 c6 -8 10 -25
8 -38 -2 -18 -9 -23 -33 -23 -24 0 -31 5 -33 23 -4 25 13 52 33 52 7 0 18 -7
25 -14z"/>
<path d="M3830 2340 c0 -5 5 -10 10 -10 6 0 10 5 10 10 0 6 -4 10 -10 10 -5 0
-10 -4 -10 -10z"/>
<path d="M2170 2265 l0 -75 50 0 c28 0 50 5 50 10 0 6 -18 10 -40 10 l-40 0 0
65 c0 37 -4 65 -10 65 -6 0 -10 -32 -10 -75z"/>
<path d="M3126 2318 c27 -86 42 -122 52 -126 6 -2 18 22 28 52 10 31 21 56 24
56 3 0 14 -25 24 -56 10 -30 22 -54 28 -52 6 2 21 33 34 68 26 72 28 80 16 80
-5 0 -17 -28 -28 -62 l-20 -63 -20 59 c-11 33 -25 61 -31 63 -7 3 -19 -21 -29
-51 -10 -31 -21 -56 -24 -56 -3 0 -14 25 -24 55 -9 30 -22 55 -27 55 -6 0 -7
-9 -3 -22z"/>
<path d="M3910 2315 c0 -8 -6 -15 -12 -15 -10 0 -10 -2 -1 -8 6 -4 13 -28 15
-52 2 -38 7 -46 26 -48 12 -2 22 1 22 7 0 6 -7 11 -15 11 -23 0 -21 77 3 83
16 4 16 5 0 6 -10 0 -18 8 -18 16 0 8 -4 15 -10 15 -5 0 -10 -7 -10 -15z"/>
<path d="M2323 2245 c0 -33 2 -45 4 -27 2 18 2 45 0 60 -2 15 -4 0 -4 -33z"/>
<path d="M2560 2243 c0 -29 5 -53 10 -53 6 0 10 17 10 39 0 29 6 42 23 54 22
15 22 15 -10 15 l-33 -1 0 -54z"/>
<path d="M2666 2291 c-3 -5 9 -8 26 -7 23 1 33 -4 36 -16 3 -15 -3 -18 -31
-18 -38 0 -50 -14 -35 -42 6 -13 20 -17 48 -16 39 1 40 2 40 39 0 57 -8 69
-45 69 -19 0 -36 -4 -39 -9z m64 -65 c0 -8 -7 -17 -16 -20 -19 -7 -47 12 -38
25 9 15 54 10 54 -5z"/>
<path d="M2810 2243 c0 -29 5 -53 10 -53 6 0 10 17 10 39 0 29 6 42 23 54 22
15 22 15 -10 15 l-33 -1 0 -54z"/>
<path d="M2902 2292 c41 -93 46 -141 13 -128 -8 3 -15 1 -15 -5 0 -6 10 -9 23
-7 16 2 30 20 54 68 35 71 37 80 24 80 -5 0 -16 -18 -25 -40 -9 -22 -18 -40
-21 -40 -3 0 -12 18 -21 40 -9 22 -21 40 -26 40 -5 0 -8 -3 -6 -8z"/>
<path d="M3392 2288 c-18 -18 -14 -63 6 -81 20 -18 40 -21 69 -10 14 6 8 9
-21 13 -58 7 -59 30 -2 30 33 0 46 4 46 14 0 38 -70 62 -98 34z m66 -10 c20
-20 14 -28 -23 -28 -19 0 -35 4 -35 8 0 12 22 32 35 32 6 0 16 -5 23 -12z"/>
<path d="M3700 2285 c-15 -19 1 -42 32 -47 39 -6 33 -28 -7 -28 -21 0 -34 -4
-30 -10 8 -12 55 -13 73 -1 24 15 9 44 -26 53 -39 10 -38 33 1 33 14 1 29 4
33 8 4 4 -9 7 -28 7 -20 0 -41 -7 -48 -15z"/>
<path d="M3830 2245 c0 -30 5 -55 10 -55 6 0 10 25 10 55 0 30 -4 55 -10 55
-5 0 -10 -25 -10 -55z"/>
<path d="M4014 2275 c-13 -21 -15 -31 -6 -50 12 -25 51 -41 77 -31 26 9 16 23
-13 18 -18 -2 -33 2 -41 12 -12 14 -8 16 33 16 38 0 46 3 46 18 0 47 -69 59
-96 17z m60 9 c27 -10 19 -34 -12 -34 -35 0 -45 9 -31 27 13 15 20 16 43 7z"/>
</g>
</svg>
